<svg xmlns:vectornator="http://vectornator.io" xmlns="http://www.w3.org/2000/svg" viewBox="0 0 68.04 552.825" fill-rule="evenodd" clip-rule="evenodd" stroke-linecap="round" stroke-linejoin="round"><defs/><g vectornator:layerName="Layer 2"><path d="M10.7241 542.02h49.7761v-5.716H40.1436v-14.571c0-11.433-4.9498-17.219-14.7795-17.219-9.76 0-14.64 5.717-14.64 17.15v20.356zm4.9497-5.716v-14.292c0-3.973.7669-6.901 2.44-8.853 1.464-1.952 3.904-2.928 7.2503-2.928 3.3463 0 5.7863.976 7.3897 2.858 1.6035 1.952 2.44 4.88 2.44 8.923v14.292h-19.52z" fill="#eecd7d"/><g fill="#eecd7d"><path d="M43.6816 458.248c2.5658 0 4.9381.448 7.1167 1.343 2.1785.896 4.0666 2.143 5.6643 3.74 1.5976 1.598 2.8442 3.51 3.7398 5.737.8957 2.227 1.3435 4.672 1.3435 7.335 0 2.614-.4478 5.035-1.3435 7.262-.8956 2.227-2.1422 4.139-3.7399 5.737-1.5976 1.597-3.4857 2.844-5.6642 3.739-2.1786.896-4.5509 1.344-7.1167 1.344-2.5659 0-4.9381-.448-7.1167-1.344-2.1786-.895-4.0667-2.142-5.6643-3.739-1.5976-1.598-2.8443-3.51-3.7399-5.737-.8956-2.227-1.3435-4.648-1.3435-7.262 0-2.663.4479-5.108 1.3435-7.335.8956-2.227 2.1423-4.139 3.7399-5.737 1.5976-1.597 3.4857-2.844 5.6643-3.74 2.1786-.895 4.5508-1.343 7.1167-1.343zm0 5.229c-1.8881 0-3.6673.302-5.3375.907-1.6703.605-3.1227 1.465-4.3572 2.578-1.2345 1.114-2.2149 2.469-2.9411 4.067-.7262 1.598-1.0893 3.389-1.0893 5.374 0 1.985.3631 3.764 1.0893 5.337.7262 1.574 1.7066 2.917 2.9411 4.031 1.2345 1.113 2.6869 1.972 4.3572 2.578 1.6702.605 3.4494.907 5.3375.907 1.8881 0 3.6672-.302 5.3375-.907 1.6702-.606 3.1226-1.465 4.3571-2.578 1.2346-1.114 2.2028-2.457 2.9048-4.031.702-1.573 1.053-3.352 1.053-5.337 0-1.985-.351-3.776-1.053-5.374-.702-1.598-1.6702-2.953-2.9048-4.067-1.2345-1.113-2.6869-1.973-4.3571-2.578-1.6703-.605-3.4494-.907-5.3375-.907zM43.6816 304.949c2.5659 0 4.9381.448 7.1167 1.343 2.1785.896 4.0666 2.143 5.6643 3.74 1.5976 1.598 2.8442 3.51 3.7398 5.737.8957 2.227 1.3435 4.672 1.3435 7.335 0 2.614-.4478 5.035-1.3435 7.262-.8956 2.226-2.1422 4.139-3.7398 5.736-1.5977 1.598-3.4858 2.845-5.6643 3.74-2.1786.896-4.5508 1.344-7.1167 1.344s-4.9381-.448-7.1167-1.344c-2.1786-.895-4.0667-2.142-5.6643-3.74-1.5976-1.597-2.8443-3.51-3.7399-5.736-.8956-2.227-1.3434-4.648-1.3434-7.262 0-2.663.4478-5.108 1.3434-7.335.8956-2.227 2.1423-4.139 3.7399-5.737 1.5976-1.597 3.4857-2.844 5.6643-3.74 2.1786-.895 4.5508-1.343 7.1167-1.343zm0 5.228c-1.8881 0-3.6673.303-5.3375.908-1.6703.605-3.1227 1.465-4.3572 2.578-1.2345 1.114-2.2149 2.469-2.9411 4.067-.7262 1.597-1.0892 3.389-1.0892 5.374 0 1.985.363 3.764 1.0892 5.337.7262 1.574 1.7066 2.917 2.9411 4.03 1.2345 1.114 2.6869 1.973 4.3572 2.578 1.6702.606 3.4494.908 5.3375.908 1.8881 0 3.6672-.302 5.3375-.908 1.6702-.605 3.1226-1.464 4.3571-2.578 1.2346-1.113 2.2028-2.456 2.9048-4.03.702-1.573 1.053-3.352 1.053-5.337 0-1.985-.351-3.777-1.053-5.374-.702-1.598-1.6702-2.953-2.9048-4.067-1.2345-1.113-2.6869-1.973-4.3571-2.578-1.6702-.605-3.4494-.908-5.3375-.908zM60.6745 282.001v4.938H5.77436v-4.938H60.6745zM60.6745 256.512v4.938H26.6887v-4.938h33.9858zm-47.0573-1.017c1.0167 0 1.8518.363 2.5054 1.089.6536.727.9804 1.525.9804 2.397 0 .871-.3268 1.67-.9804 2.396-.6536.726-1.4887 1.09-2.5054 1.09-1.0166 0-1.8518-.364-2.5053-1.09-.6536-.726-.9804-1.525-.9804-2.396 0-.872.3268-1.67.9804-2.397.6535-.726 1.4887-1.089 2.5053-1.089zM43.6816 202.338c2.5659 0 4.9381.448 7.1167 1.343 2.1785.896 4.0666 2.143 5.6643 3.74 1.5976 1.598 2.8442 3.51 3.7399 5.737.8956 2.227 1.3434 4.672 1.3434 7.335 0 2.614-.4478 5.035-1.3434 7.262-.8957 2.227-2.1423 4.139-3.7399 5.736-1.5977 1.598-3.4858 2.845-5.6643 3.74-2.1786.896-4.5508 1.344-7.1167 1.344s-4.9381-.448-7.1167-1.344c-2.1786-.895-4.0667-2.142-5.6643-3.74-1.5976-1.597-2.8442-3.509-3.7399-5.736-.8956-2.227-1.3434-4.648-1.3434-7.262 0-2.663.4478-5.108 1.3434-7.335.8957-2.227 2.1423-4.139 3.7399-5.737 1.5976-1.597 3.4857-2.844 5.6643-3.74 2.1786-.895 4.5508-1.343 7.1167-1.343zm0 5.228c-1.8881 0-3.6673.303-5.3375.908-1.6703.605-3.1226 1.465-4.3572 2.578-1.2345 1.114-2.2149 2.469-2.9411 4.067-.7261 1.597-1.0892 3.389-1.0892 5.374 0 1.985.3631 3.764 1.0892 5.337.7262 1.574 1.7066 2.917 2.9411 4.031 1.2345 1.113 2.6869 1.972 4.3572 2.578 1.6702.605 3.4494.907 5.3375.907 1.8881 0 3.6673-.302 5.3375-.907 1.6702-.606 3.1226-1.465 4.3572-2.578 1.2345-1.114 2.2027-2.457 2.9047-4.031.702-1.573 1.053-3.352 1.053-5.337 0-1.985-.351-3.777-1.053-5.374-.702-1.598-1.6702-2.953-2.9047-4.067-1.2346-1.113-2.687-1.973-4.3572-2.578-1.6702-.605-3.4494-.908-5.3375-.908z"/></g><g fill="#eecd7d"><path d="M60.8305 440.422v-5.212H37.7469c-5.4251 0-9.7511-2.234-9.7511-8.9 0-1.099.0355-2.27.1419-2.872h-4.8579c-.0709.709-.1418 1.489-.1418 2.234 0 5.496 2.9431 8.261 5.3542 9.396v.142h-4.7869v5.212h37.1252zM23.7053 403.605v5.071h4.4324v-5.071h22.5516c7.1627 0 10.4958-1.631 10.4958-10.106 0-1.241-.1419-2.482-.2482-3.014h-4.2905c.0709.532.0709 1.064.0709 1.702 0 4.716-1.1347 6.206-5.7089 6.206H28.1377v-7.589h-4.4324v7.589h-9.3256v5.212h9.3256zM60.8305 370.688v-5.212H28.1377v-7.588h-4.4324v7.588h-3.5104c-4.716 0-6.0988-2.021-6.0988-6.17 0-.887.0709-1.418.1418-1.986H9.80556c-.10637.639-.21275 1.49-.21275 2.589 0 7.304 3.22669 10.779 10.24749 10.779h3.865v5.071h4.4324v-5.071h32.6928z"/></g><g fill="#eecd7d"><path d="M18.2277 193.121h10.3701v-4.416c0-1.002-.2179-1.815-.6536-2.44-.4938-.697-1.2345-1.045-2.1931-1.045-.6681 0-1.2491.217-1.7138.639-.4648.435-.7407.987-.8424 1.655-.1307-.523-.4067-.973-.8279-1.336-.4357-.363-.944-.552-1.5395-.552-.8424 0-1.4814.291-1.9462.857-.4357.552-.6536 1.264-.6536 2.135v4.503zm.5229-.567v-3.834c0-.755.1598-1.365.5083-1.816.3631-.464.9005-.711 1.5977-.711.668 0 1.1909.247 1.5685.726.3486.45.5374 1.046.5374 1.786v3.849h-4.2119zm4.7348 0v-3.878c0-.828.1743-1.51.5373-2.033.4067-.567.9877-.857 1.7429-.857.7843 0 1.3798.29 1.7864.857.3486.508.5229 1.176.5229 1.99v3.921h-4.5895zM21.0889 180.151l7.32-2.978 3.0646 1.249v-.624l-10.3846-4.168v.639l6.6229 2.614-6.6229 2.643v.625zM18.2277 158.931h10.3701v-.566h-4.5605v-3.602c0-2.222-.9731-3.34-2.9193-3.34-1.9317 0-2.8903 1.118-2.8903 3.326v4.182zm.5229-.566v-3.587c0-.944.2033-1.656.61-2.121.3776-.436.9731-.668 1.7574-.668.7843 0 1.3797.232 1.7719.668.4067.465.6245 1.162.6245 2.121v3.587h-4.7638zM20.8856 142.65c0 1.046.3921 1.874 1.191 2.513.7552.61 1.6702.9 2.7595.9 1.1764 0 2.135-.305 2.8757-.944.7262-.61 1.0893-1.438 1.0893-2.483 0-.93-.276-1.685-.8133-2.281-.4648-.479-1.0603-.813-1.801-.987v.595c.6391.175 1.1329.465 1.4814.843.4067.464.6246 1.074.6246 1.83 0 .842-.305 1.525-.9005 2.048-.581.508-1.3798.769-2.3674.798v-6.274c-1.2781.058-2.2657.334-2.9483.828-.7989.581-1.191 1.452-1.191 2.614zm.5083-.014c0-1.743 1.0458-2.687 3.1372-2.847v5.693c-.9005-.058-1.6557-.334-2.2512-.842-.5955-.508-.886-1.176-.886-2.004zM18.6635 131.83l.2469.552h2.1785v1.699h.5084v-1.699h5.4174c.5228 0 .9004-.087 1.1619-.291.2759-.217.4212-.61.4212-1.176v-.988h-.5084v.944c0 .378-.0871.639-.2469.756-.1597.145-.4357.203-.8278.203h-5.4174v-2.077h-.5084v2.077h-2.4254zM20.8856 121.068c0 1.045.3922 1.873 1.191 2.512.7552.61 1.6702.901 2.7595.901 1.1764 0 2.135-.305 2.8757-.944.7262-.61 1.0893-1.438 1.0893-2.484 0-.929-.276-1.685-.8133-2.28-.4648-.479-1.0603-.813-1.801-.988v.596c.6391.174 1.1329.465 1.4814.842.4067.465.6246 1.075.6246 1.83 0 .843-.305 1.525-.9005 2.048-.581.508-1.3798.77-2.3674.799v-6.274c-1.2781.058-2.2657.334-2.9483.827-.7988.581-1.191 1.453-1.191 2.615zm.5083-.015c0-1.743 1.0458-2.687 3.1372-2.846v5.693c-.9005-.058-1.6557-.334-2.2512-.842-.5955-.509-.886-1.177-.886-2.005zM20.8856 108.853c0 .581.1888 1.104.5664 1.554.3196.392.7117.683 1.2055.872h-1.5686v.566h7.5089v-.566h-3.965c-.7989 0-1.5105-.189-2.1205-.581-.7117-.45-1.0603-1.06-1.0603-1.816 0-.377.0581-.784.1743-1.191h-.5955c-.1016.291-.1452.683-.1452 1.162z"/></g><g fill="#eecd7d"><path d="M41.0737 192.634l15.5551-4.466v-1.089l-14.4876-4.14v-.065l14.4876-4.118v-1.089l-15.5551-4.488v.959l14.5311 4.03v.087l-14.5311 4.096v1.111l14.5311 4.118v.065l-14.5311 4.03v.959zM40.7687 157.717h15.8601v-.85h-6.5793c-1.1765 0-2.1786-.37-3.0065-1.111-.8278-.719-1.22-1.569-1.22-2.571 0-1.046.305-1.874.915-2.484.6318-.61 1.525-.936 2.7015-.936h7.1893v-.828h-7.2547c-1.3725 0-2.44.37-3.2025 1.111-.7407.741-1.1111 1.721-1.1111 2.985 0 .827.2179 1.568.6754 2.222.4575.675 1.0893 1.22 1.8954 1.612h-6.8626v.85zM41.5312 131.012c0 .262.0872.458.2615.61.1525.175.3485.262.61.262.2396 0 .4357-.087.61-.262.1743-.152.2614-.348.2614-.61 0-.239-.0871-.435-.2614-.61-.1743-.174-.3704-.261-.61-.261-.2615 0-.4575.087-.61.261-.1743.175-.2615.371-.2615.61zm3.8343.414h11.2633v-.828H45.3655v.828zM41.7273 110.713l.3704.828h3.2678v2.549h.7625v-2.549h8.1261c.7843 0 1.3508-.131 1.7429-.436.4139-.327.6318-.915.6318-1.765v-1.481h-.7625v1.416c0 .567-.1307.959-.3704 1.133-.2396.218-.6536.305-1.2418.305H46.128v-3.115h-.7625v3.115h-3.6382zM40.7687 91.1109h15.8601v-.8279H40.7687v.8279zM45.0605 68.2191c0 1.6557.61 2.9629 1.8518 3.9215 1.0893.8932 2.4618 1.3289 4.0958 1.3289 1.6121 0 2.9628-.4357 4.0957-1.3289 1.22-.9586 1.83-2.2658 1.83-3.9215 0-1.6339-.61-2.941-1.83-3.9214-1.1329-.8714-2.4836-1.3289-4.0957-1.3289-1.634 0-3.0065.4575-4.0958 1.3289-1.2418.9804-1.8518 2.2875-1.8518 3.9214zm.7625 0c0-1.3725.5229-2.4618 1.5904-3.2896.9586-.7407 2.1568-1.1111 3.5947-1.1111 1.416 0 2.6143.3704 3.5728 1.1111 1.0457.8278 1.5904 1.9171 1.5904 3.2896 0 1.3943-.5447 2.4836-1.5904 3.2897-.9585.7407-2.135 1.1111-3.5728 1.1111-1.4379 0-2.6361-.3704-3.5947-1.1111-1.0675-.8061-1.5904-1.8954-1.5904-3.2897zM45.0606 42.0159c0 1.5904.5882 2.854 1.8082 3.769 1.111.8714 2.5271 1.3071 4.2482 1.3071 1.6993 0 3.0718-.4139 4.1175-1.2418 1.1329-.8932 1.6993-2.1568 1.6993-3.8125 0-1.3071-.3704-2.3746-1.0893-3.2025-.7407-.8278-1.8082-1.3507-3.1807-1.5686v.8279c2.3311.3921 3.5075 1.6993 3.5075 3.9432 0 1.3725-.4793 2.4182-1.4161 3.1372-.915.7189-2.1132 1.0675-3.6382 1.0675-1.5686 0-2.8104-.3704-3.7689-1.1111-1.024-.7843-1.525-1.8082-1.525-3.1154 0-1.0675.2614-1.9389.806-2.636.5229-.6536 1.3072-1.0675 2.3747-1.22v-.8279c-1.329.1743-2.3093.6754-2.9629 1.5032-.6536.8279-.9803 1.8736-.9803 3.1807zM40.7688 21.172h15.86v-.8496h-4.0086l-2.3093-2.5707 6.3179-4.9454v-1.1111l-6.8843 5.4465-4.3789-4.9454v1.22l6.1653 6.9061H40.7688v.8496z"/></g></g></svg>